/* XPM */
static char * bitcoin16_xpm[] = {
"16 16 140 2",
"  	c None",
". 	c #FFFFFF",
"+ 	c #FFFFFF",
"@ 	c #FFFFFF",
"# 	c #F8F9F9",
"$ 	c #C1C7C8",
"% 	c #B5BDBE",
"& 	c #E9EBEB",
"* 	c #FFFFFF",
"= 	c #FFFFFF",
"- 	c #DADEDE",
"; 	c #9AA5A6",
"> 	c #8A9698",
", 	c #B0B8B9",
"' 	c #E5E8E8",
") 	c #FFFFFF",
"! 	c #FFFFFF",
"~ 	c #EFF1F1",
"{ 	c #B1B9BA",
"] 	c #869395",
"^ 	c #899597",
"/ 	c #ACB5B6",
"( 	c #E2E5E5",
"_ 	c #FFFFFF",
": 	c #FFFFFF",
"< 	c #FEFEFE",
"[ 	c #CBD0D1",
"} 	c #8F9B9C",
"| 	c #8A9698",
"1 	c #B0B8B9",
"2 	c #F1F3F3",
"3 	c #E5E8E8",
"4 	c #A3ADAE",
"5 	c #E0E3E3",
"6 	c #9BA6A7",
"7 	c #F5F6F6",
"8 	c #BEC4C5",
"9 	c #98A3A4",
"0 	c #808D8F",
"a 	c #808D8F",
"b 	c #D7DBDB",
"c 	c #E0E3E4",
"d 	c #A5AEB0",
"e 	c #889496",
"f 	c #97A2A3",
"g 	c #D8DCDC",
"h 	c #F3F4F4",
"i 	c #F9F9F9",
"j 	c #FFFFFF",
"k 	c #FFFFFF",
"l 	c #DCE0E0",
"m 	c #A6AFB0",
"n 	c #889596",
"o 	c #899697",
"p 	c #BEC5C6",
"q 	c #F7F8F8",
"r 	c #FFFFFF",
"s 	c #FFFFFF",
"t 	c #FFFFFF",
"u 	c #DEE2E2",
"v 	c #A7B0B2",
"w 	c #899597",
"x 	c #899697",
"y 	c #A6AFB1",
"z 	c #E6E9E9",
"A 	c #FFFFFF",
"B 	c #FFFFFF",
"C 	c #FFFFFF",
"D 	c #DDE1E1",
"E 	c #B0B8B9",
"F 	c #CED3D4",
"G 	c #FFFFFF",
"H 	c #FFFFFF",
"I 	c #FFFFFF",
"J 	c #FFFFFF",
"K 	c #8D999A",
"L 	c #96A1A3",
"M 	c #B5BDBE",
"N 	c #F5F6F7",
"O 	c #FDFEFE",
"P 	c #DCE0E0",
"Q 	c #9FA9AA",
"R 	c #99A4A5",
"S 	c #E3E6E6",
"T 	c #FFFFFF",
"U 	c #FEFEFE",
"V 	c #E0E3E4",
"W 	c #A3ADAE",
"X 	c #8A9698",
"Y 	c #C8CECF",
"Z 	c #FBFCFC",
"` 	c #FDFDFD",
" .	c #B6BEBF",
"..	c #738284",
"+.	c #9BA5A7",
"@.	c #DDE1E1",
"#.	c #FDFDFD",
"$.	c #EBEDEE",
"%.	c #A2ACAD",
"&.	c #8C9899",
"*.	c #D0D5D5",
"=.	c #8D999B",
"-.	c #CFD4D4",
";.	c #AAB3B4",
">.	c #95A0A1",
",.	c #D5DADA",
"'.	c #FCFCFC",
").	c #F9FAFA",
"!.	c #BFC6C7",
"~.	c #879395",
"{.	c #B9C1C2",
"].	c #B3BBBC",
"^.	c #6A797B",
"/.	c #9CA6A7",
"(.	c #E3E6E6",
"_.	c #CBD1D2",
":.	c #909B9D",
"<.	c #95A0A1",
"[.	c #D3D8D9",
"}.	c #FBFBFB",
"|.	c #DCE0E0",
"1.	c #929D9F",
"2.	c #9CA6A8",
"3.	c #DEE1E2",
"4.	c #BBC2C3",
"5.	c #ADB5B6",
"6.	c #E3E6E6",
"7.	c #CED3D4",
"8.	c #929E9F",
"9.	c #879496",
"0.	c #8B9799",
"a.	c #CBD1D1",
"b.	c #D4D9D9",
"c.	c #909C9D",
"d.	c #ABB4B5",
"e.	c #E2E5E5",
"f.	c #DCE0E0",
"g.	c #DFE2E3",
"h.	c #A7B0B1",
"i.	c #9BA6A7",
"                                ",
"                                ",
"              $ %               ",
"          - ; K L > ,           ",
"        { ] M N O P Q ^ /       ",
"    [ } R S T T T T U V W | 1   ",
"  4 X Y Z T T T T T T T `  ...5 ",
"6 +.@.#.T T T T T T T $.%.&.*.7 ",
"=.-.;.>.,.'.T T T ).!.~.{.].^.8 ",
"9 /.(._.:.<.[.}.|.1.2.3.4.0 a b ",
"c d e 5.6.7.8.9.0.a.b.c.f g     ",
"      m n d.e.f.g.h.o p         ",
"          v w i.x y             ",
"              E F               ",
"                                ",
"                                "};
