/* XPM */
static char * bitcoin32_xpm[] = {
"32 32 198 2",
"  	c None",
". 	c #FDFDFD",
"+ 	c #FCFCFC",
"@ 	c #FFFFFF",
"# 	c #EDEFEF",
"$ 	c #9DA7A8",
"% 	c #839092",
"& 	c #CFD4D4",
"* 	c #FAFAFA",
"= 	c #C2C9CA",
"- 	c #5E6F71",
"; 	c #43575A",
"> 	c #526467",
", 	c #405457",
"' 	c #788688",
") 	c #CAD0D0",
"! 	c #F7F8F8",
"~ 	c #E0E3E4",
"{ 	c #828F91",
"] 	c #3E5255",
"^ 	c #707F81",
"/ 	c #D4D8D9",
"( 	c #EFF0F1",
"_ 	c #B2BABB",
": 	c #5F7072",
"< 	c #3F5356",
"[ 	c #728082",
"} 	c #C5CBCC",
"| 	c #F6F7F7",
"1 	c #F3F4F4",
"2 	c #ABB4B5",
"3 	c #4C5F61",
"4 	c #4F6264",
"5 	c #B0B8BA",
"6 	c #B8BFC0",
"7 	c #647477",
"8 	c #6C7C7E",
"9 	c #BFC6C7",
"0 	c #F4F5F5",
"a 	c #6A7A7C",
"b 	c #3F5355",
"c 	c #889596",
"d 	c #E4E7E7",
"e 	c #F5F6F6",
"f 	c #BEC5C6",
"g 	c #6B7A7C",
"h 	c #667678",
"i 	c #B9C1C2",
"j 	c #F2F3F3",
"k 	c #E8EBEB",
"l 	c #929E9F",
"m 	c #415558",
"n 	c #627275",
"o 	c #C7CDCE",
"p 	c #C4CACB",
"q 	c #617274",
"r 	c #B4BCBD",
"s 	c #EFF1F1",
"t 	c #B9C0C1",
"u 	c #56686A",
"v 	c #475A5D",
"w 	c #A1ABAD",
"x 	c #F1F2F2",
"y 	c #F9F9F9",
"z 	c #CACFD0",
"A 	c #778587",
"B 	c #5D6E70",
"C 	c #B6BEBF",
"D 	c #FBFCFC",
"E 	c #FEFEFE",
"F 	c #DADDDE",
"G 	c #798789",
"H 	c #3D5154",
"I 	c #788788",
"J 	c #DBDEDF",
"K 	c #CFD4D5",
"L 	c #596A6D",
"M 	c #536568",
"N 	c #A1ABAC",
"O 	c #BAC1C2",
"P 	c #EEF0F0",
"Q 	c #435659",
"R 	c #738284",
"S 	c #EBEDED",
"T 	c #6D7D7F",
"U 	c #415557",
"V 	c #929D9F",
"W 	c #FAFBFB",
"X 	c #C0C7C8",
"Y 	c #5C6D6F",
"Z 	c #44575A",
"` 	c #98A3A5",
" .	c #D8DCDD",
"..	c #A9B2B4",
"+.	c #E3E6E6",
"@.	c #EBEDEE",
"#.	c #DEE2E2",
"$.	c #7F8C8E",
"%.	c #738183",
"&.	c #D8DCDC",
"*.	c #FCFDFD",
"=.	c #FDFEFE",
"-.	c #D9DDDE",
";.	c #45595B",
">.	c #BFC5C6",
",.	c #98A3A4",
"'.	c #A8B1B2",
").	c #ECEEEE",
"!.	c #F2F3F4",
"~.	c #A6AFB1",
"{.	c #4A5D5F",
"].	c #526466",
"^.	c #EAEDED",
"/.	c #AFB7B8",
"(.	c #939EA0",
"_.	c #818E90",
":.	c #939FA0",
"<.	c #DDE0E1",
"[.	c #808D8F",
"}.	c #A4AEAF",
"|.	c #657577",
"1.	c #8D999A",
"2.	c #E7E9E9",
"3.	c #6B7A7D",
"4.	c #273D40",
"5.	c #283F42",
"6.	c #97A1A3",
"7.	c #425659",
"8.	c #D5DADA",
"9.	c #A2ACAD",
"0.	c #E9EBEB",
"a.	c #E5E8E8",
"b.	c #8B9798",
"c.	c #677779",
"d.	c #CCD1D2",
"e.	c #EAECED",
"f.	c #94A0A1",
"g.	c #34494C",
"h.	c #475B5D",
"i.	c #435759",
"j.	c #899697",
"k.	c #DADEDF",
"l.	c #879495",
"m.	c #44585A",
"n.	c #506265",
"o.	c #9EA8AA",
"p.	c #E7EAEA",
"q.	c #B1B9BA",
"r.	c #506365",
"s.	c #4B5E60",
"t.	c #57686B",
"u.	c #A0AAAB",
"v.	c #9CA6A8",
"w.	c #516366",
"x.	c #D9DDDD",
"y.	c #8A9698",
"z.	c #46595C",
"A.	c #4E6163",
"B.	c #9DA7A9",
"C.	c #C6CCCD",
"D.	c #717F81",
"E.	c #808E8F",
"F.	c #E0E3E3",
"G.	c #DADEDE",
"H.	c #D7DCDC",
"I.	c #FBFBFB",
"J.	c #E8EAEA",
"K.	c #A4ADAF",
"L.	c #536567",
"M.	c #859294",
"N.	c #D7DBDC",
"O.	c #DDE1E1",
"P.	c #8E9A9C",
"Q.	c #485B5E",
"R.	c #384D50",
"S.	c #C2C8C9",
"T.	c #E9EBEC",
"U.	c #A5AFB0",
"V.	c #546668",
"W.	c #D6DADB",
"X.	c #DEE1E2",
"Y.	c #B7BFC0",
"Z.	c #A9B2B3",
"`.	c #425658",
" +	c #E1E4E4",
".+	c #6E7D7F",
"++	c #D1D5D6",
"@+	c #AAB3B4",
"#+	c #57696B",
"$+	c #7F8D8E",
"%+	c #D3D8D8",
"&+	c #F0F2F2",
"*+	c #AFB8B9",
"=+	c #ACB5B6",
"-+	c #596B6D",
";+	c #ADB5B7",
">+	c #7B898B",
",+	c #C8CDCE",
"                                                                ",
"                                                                ",
"                                                                ",
"                                                                ",
"                              . +                               ",
"                          @ # $ % & *                           ",
"                        * = - ; > , ' ) !                       ",
"                    @ ~ { ] ^ / ( _ : < [ } |                   ",
"                  1 2 3 4 5 | @ @ @ 1 6 7 ] 8 9 0 @             ",
"              . & a b c d @ @ @ @ @ @ @ e f g ] h i j @         ",
"          @ k l m n o + @ @ @ @ @ @ @ @ @ @ ! p ^ < q r s @     ",
"        ! t u v w x @ @ @ @ @ @ @ @ @ @ @ @ @ @ y z A , B C D   ",
"    E F G H I J @ @ @ @ @ @ @ @ @ @ @ @ @ @ @ @ @ @ + K L M s   ",
"@ s N v u O y @ @ @ @ @ @ @ @ @ @ @ @ @ @ @ @ @ @ @ P $ Q R e   ",
"S T U V S @ @ @ @ @ @ @ @ @ @ @ @ @ @ @ @ @ @ @ W X Y Z ` # @   ",
" .m ..@ +.@.@ @ @ @ @ @ @ @ @ @ @ @ @ @ @ @ @ #.$.] %.&.@ @ *.=.",
"-.;.>.@ ,.M '.).@ @ @ @ @ @ @ @ @ @ @ @ @ !.~.{.].r ^./.(._.:.0 ",
"-.;.>.@ <.[.m M }.^.@ @ @ @ @ @ @ @ @ *.) |., 1.2.@ e 3.4.5.6.@ ",
" .7./.@ @ + 8.% 7.].9.0.@ @ @ @ @ @ a.b.< c.d.. @ e.f.Q g.h.#.  ",
"a.- i.j.k.. @ *.&.l.m.n.o.p.@ @ | q.r.s.'.1 @ y O t.;.u._ v.=.  ",
"@ p.N w.m.c x.. @ . k.y.z.A.B.C.D.] E.F.@ E G.' H A H.E I.|     ",
"    @ J.K.L.; M.N.*.@ . O.P.Q.R.- S.W @ s o.z.u t !             ",
"        @ T.U.V.Q % W.+ @ E X.Y.# @ I.p : m (.k @               ",
"            @ e.Z.u `._./ + @ @ @  +{ ] .+++.                   ",
"                @ ).@+#+m $+%+&+@+3 4 *+0                       ",
"                    @ ).=+-+7.M , j.+.@                         ",
"                        @ # ;+>+,+D                             ",
"                            E D                                 ",
"                                                                ",
"                                                                ",
"                                                                ",
"                                                                "};
