/* XPM */
static char * bitcoin64_xpm[] = {
"64 64 339 2",
"  	c None",
". 	c #FFFFFF",
"+ 	c #FAFAFA",
"@ 	c #BFC6C7",
"# 	c #9EA8A9",
"$ 	c #DEE1E2",
"% 	c #FDFEFE",
"& 	c #DFE3E3",
"* 	c #828F91",
"= 	c #384D50",
"- 	c #2C4245",
"; 	c #485B5E",
"> 	c #8F9B9D",
", 	c #DCDFE0",
"' 	c #FDFDFD",
") 	c #F3F4F5",
"! 	c #ABB4B5",
"~ 	c #4D6062",
"{ 	c #2B4144",
"] 	c #2A4043",
"^ 	c #2A4144",
"/ 	c #294043",
"( 	c #45585B",
"_ 	c #8B9799",
": 	c #D8DCDC",
"< 	c #FCFCFC",
"[ 	c #FCFDFD",
"} 	c #CDD2D3",
"| 	c #6C7C7E",
"1 	c #314649",
"2 	c #2D4346",
"3 	c #5B6C6F",
"4 	c #526467",
"5 	c #2E4447",
"6 	c #293F42",
"7 	c #425558",
"8 	c #849192",
"9 	c #D2D6D7",
"0 	c #FAFBFB",
"a 	c #E8EAEA",
"b 	c #919D9E",
"c 	c #3F5356",
"d 	c #415557",
"e 	c #95A0A2",
"f 	c #E9ECEC",
"g 	c #E7E9EA",
"h 	c #A3ADAE",
"i 	c #56686A",
"j 	c #2F4548",
"k 	c #3E5355",
"l 	c #7D8A8C",
"m 	c #CCD1D2",
"n 	c #F9FAFA",
"o 	c #F8F9F9",
"p 	c #B8BFC0",
"q 	c #57696B",
"r 	c #31474A",
"s 	c #6F7E80",
"t 	c #D0D5D6",
"u 	c #EBEDEE",
"v 	c #5B6D6F",
"w 	c #304649",
"x 	c #3B5053",
"y 	c #778688",
"z 	c #C9CECF",
"A 	c #FEFEFE",
"B 	c #D9DDDE",
"C 	c #7A888A",
"D 	c #354A4D",
"E 	c #4F6164",
"F 	c #ADB5B6",
"G 	c #F4F5F6",
"H 	c #EFF0F1",
"I 	c #AFB7B9",
"J 	c #5F7072",
"K 	c #32484B",
"L 	c #394E50",
"M 	c #728183",
"N 	c #C3CACA",
"O 	c #F6F7F7",
"P 	c #EFF1F1",
"Q 	c #A1ABAC",
"R 	c #475A5D",
"S 	c #3A4E51",
"T 	c #859294",
"U 	c #E1E4E4",
"V 	c #F0F2F2",
"W 	c #B5BCBE",
"X 	c #657577",
"Y 	c #34494C",
"Z 	c #364B4E",
"` 	c #6D7C7E",
" .	c #BDC4C5",
"..	c #FBFBFB",
"+.	c #C4CACB",
"@.	c #637476",
"#.	c #627275",
"$.	c #C3C9CA",
"%.	c #F3F4F4",
"&.	c #BBC3C4",
"*.	c #6C7B7D",
"=.	c #344A4D",
"-.	c #667679",
";.	c #B6BEBF",
">.	c #F1F2F3",
",.	c #E3E6E6",
"'.	c #889496",
").	c #3B4F52",
"!.	c #46595C",
"~.	c #9FA9AA",
"{.	c #EFF0F0",
"].	c #718082",
"^.	c #33484B",
"/.	c #617174",
"(.	c #B1B9BA",
"_.	c #F5F6F6",
":.	c #B0B8B9",
"<.	c #516365",
"[.	c #2B4245",
"}.	c #778587",
"|.	c #D7DBDC",
"1.	c #C7CDCD",
"2.	c #768486",
"3.	c #293F43",
"4.	c #5C6D70",
"5.	c #ACB5B6",
"6.	c #ECEEEE",
"7.	c #D1D6D7",
"8.	c #B5BDBE",
"9.	c #F7F8F8",
"0.	c #F9F9FA",
"a.	c #CBD1D2",
"b.	c #58696C",
"c.	c #A6AFB0",
"d.	c #E8EBEB",
"e.	c #EAECED",
"f.	c #96A1A3",
"g.	c #425658",
"h.	c #3E5255",
"i.	c #E6E9E9",
"j.	c #839092",
"k.	c #415558",
"l.	c #536568",
"m.	c #9EA8AA",
"n.	c #E4E7E8",
"o.	c #BCC3C4",
"p.	c #6A7A7C",
"q.	c #8A9698",
"r.	c #44585B",
"s.	c #A9B2B4",
"t.	c #DDE0E1",
"u.	c #7F8D8E",
"v.	c #374C4E",
"w.	c #4B5E61",
"x.	c #A7B0B2",
"y.	c #DBDFDF",
"z.	c #8F9B9C",
"A.	c #495C5F",
"B.	c #273E41",
"C.	c #4A5D60",
"D.	c #384C4F",
"E.	c #808D8F",
"F.	c #C8CECE",
"G.	c #435759",
"H.	c #283F42",
"I.	c #667779",
"J.	c #C9CFCF",
"K.	c #68787A",
"L.	c #5E6F71",
"M.	c #BFC5C6",
"N.	c #C0C6C7",
"O.	c #283E41",
"P.	c #657578",
"Q.	c #E6E8E9",
"R.	c #8D999B",
"S.	c #3D5154",
"T.	c #435659",
"U.	c #99A4A5",
"V.	c #DEE2E2",
"W.	c #818E90",
"X.	c #FEFEFF",
"Y.	c #546668",
"Z.	c #D3D8D8",
"`.	c #F2F3F4",
" +	c #A8B1B3",
".+	c #4C5F61",
"++	c #374C4F",
"@+	c #7D8B8D",
"#+	c #DCE0E0",
"$+	c #DADEDE",
"%+	c #B0B9BA",
"&+	c #CAD0D0",
"*+	c #6A797B",
"=+	c #F9F9F9",
"-+	c #D5D9DA",
";+	c #E3E6E7",
">+	c #E5E7E8",
",+	c #8D989A",
"'+	c #3D5254",
")+	c #99A3A5",
"!+	c #EBEDED",
"~+	c #D5DADA",
"{+	c #3A4F52",
"]+	c #909C9D",
"^+	c #DFE2E3",
"/+	c #B2BABB",
"(+	c #748284",
"_+	c #D4D9D9",
":+	c #909B9D",
"<+	c #E1E4E5",
"[+	c #425659",
"}+	c #485B5D",
"|+	c #939EA0",
"1+	c #D4D8D9",
"2+	c #738284",
"3+	c #B3BBBC",
"4+	c #DCE0E1",
"5+	c #CFD4D5",
"6+	c #C1C8C9",
"7+	c #B1B9BB",
"8+	c #B0B8BA",
"9+	c #F3F5F5",
"0+	c #E0E3E3",
"a+	c #283E42",
"b+	c #98A3A4",
"c+	c #8C989A",
"d+	c #69797B",
"e+	c #32474A",
"f+	c #798789",
"g+	c #9CA6A8",
"h+	c #4C5F62",
"i+	c #D9DDDD",
"j+	c #5C6D6F",
"k+	c #7E8C8D",
"l+	c #9BA6A7",
"m+	c #4F6264",
"n+	c #44585A",
"o+	c #899597",
"p+	c #D8DCDD",
"q+	c #4C5E61",
"r+	c #A8B1B2",
"s+	c #6E7D7F",
"t+	c #516366",
"u+	c #889596",
"v+	c #A4AEAF",
"w+	c #2F4447",
"x+	c #2C4346",
"y+	c #788688",
"z+	c #A0AAAC",
"A+	c #FBFCFC",
"B+	c #C7CCCD",
"C+	c #667678",
"D+	c #3E5254",
"E+	c #384D4F",
"F+	c #5D6E70",
"G+	c #ADB6B7",
"H+	c #EDEFEF",
"I+	c #E9EBEB",
"J+	c #A5AFB0",
"K+	c #57686B",
"L+	c #405457",
"M+	c #D1D6D6",
"N+	c #E2E5E5",
"O+	c #9AA4A6",
"P+	c #869394",
"Q+	c #677779",
"R+	c #EEF0F0",
"S+	c #849193",
"T+	c #5B6C6E",
"U+	c #A9B2B3",
"V+	c #596A6D",
"W+	c #304548",
"X+	c #2A4044",
"Y+	c #506265",
"Z+	c #D7DBDB",
"`+	c #5D6E71",
" @	c #637375",
".@	c #CED3D4",
"+@	c #FBFBFC",
"@@	c #808E8F",
"#@	c #5A6B6D",
"$@	c #EDEEEF",
"%@	c #ACB4B5",
"&@	c #7C8A8C",
"*@	c #707F81",
"=@	c #56676A",
"-@	c #B6BDBE",
";@	c #DDE1E1",
">@	c #9FA9AB",
",@	c #D3D7D8",
"'@	c #596A6C",
")@	c #AEB7B8",
"!@	c #3C5053",
"~@	c #C2C8C9",
"{@	c #95A0A1",
"]@	c #4B5D60",
"^@	c #7B898B",
"/@	c #D4D9DA",
"(@	c #869294",
"_@	c #A5AEB0",
":@	c #F0F1F2",
"<@	c #627375",
"[@	c #FCFCFD",
"}@	c #BBC2C3",
"|@	c #546669",
"1@	c #E9EBEC",
"2@	c #F2F3F3",
"3@	c #B7BFC0",
"4@	c #4E6063",
"5@	c #899697",
"6@	c #97A2A4",
"7@	c #EAEDED",
"8@	c #44575A",
"9@	c #A2ACAD",
"0@	c #E8EAEB",
"a@	c #B9C0C1",
"b@	c #E0E4E4",
"c@	c #728082",
"d@	c #D2D7D8",
"e@	c #45595C",
"f@	c #A0AAAB",
"g@	c #506365",
"h@	c #9DA7A8",
"i@	c #E4E7E7",
"j@	c #949FA1",
"k@	c #929D9F",
"l@	c #4E6163",
"m@	c #9AA5A6",
"n@	c #6A797C",
"o@	c #DFE2E2",
"p@	c #4D5F62",
"q@	c #F2F4F4",
"r@	c #4B5E60",
"s@	c #394E51",
"t@	c #97A2A3",
"u@	c #627274",
"v@	c #9BA5A7",
"w@	c #354B4D",
"x@	c #F8F8F8",
"                                                                                                                                ",
"                                                                                                                                ",
"                                                                                                                                ",
"                                                                                                                                ",
"                                                                                                                                ",
"                                                                                                                                ",
"                                                                                                                                ",
"                                                                                                                                ",
"                                                              . .                                                               ",
"                                                          . . . . . . .                                                         ",
"                                                        . . + @ # $ % . . .                                                     ",
"                                                    . . . & * = - ; > , ' . . .                                                 ",
"                                                . . . ) ! ~ { ] ^ / { ( _ : < . . .                                             ",
"                                              . . [ } | 1 / 2 3 _ 4 5 6 ^ 7 8 9 0 . . .                                         ",
"                                          . . . a b c ] ] d e f . g h i j 6 ] k l m n . . .                                     ",
"                                      . . . o p q 2 / r s t ' . . . . u ! v w / ] x y z o . . .                                 ",
"                                    . . A B C D ] { E F G . . . . . . . . H I J K / ] L M N O . . .                             ",
"                                . . . P Q R ^ ] S T U . . . . . . . . . . . . V W X Y / / Z `  .) . . .                         ",
"                              . . ..+.@.j / 5 #.$.0 . . . . . . . . . . . . . . . %.&.*.Z / / =.-.;.>.. . .                     ",
"                          . . . ,.'.).] ^ !.~.{.. . . . . . . . . . . . . . . . . . . O $.].= ] / ^./.(.P . . .                 ",
"                      . . . _.:.<.[.] Y }.|.A . . . . . . . . . . . . . . . . . . . . . . o 1.2.).] 3.1 4.5.6.. . .             ",
"                    . . ' 7.].K / - i 8.9.. . . . . . . . . . . . . . . . . . . . . . . . . . 0.a.l k ] 6 j b.c.d.. . .         ",
"                . . . e.f.g.] ] h.> i.. . . . . . . . . . . . . . . . . . . . . . . . . . . . . . 0 7.j.k.^ 6 5 l.m.n.A . .     ",
"            . . . n o.3 2 / w p.m [ . . . . . . . . . . . . . . . . . . . . . . . . . . . . . . . . . < |.q.r.{ 6 2 ~ s.A .     ",
"          . . . t.u.v.] { w.x.%.. . . . . . . . . . . . . . . . . . . . . . . . . . . . . . . . . . . . . ' y.z.A.5 B.X 0 .     ",
"      . . . >.c.C.^ / D.E.t.. . . . . . . . . . . . . . . . . . . . . . . . . . . . . . . . . . . . . . . . . . F.G.H.I.0 .     ",
"    . . < J.K.w / 2 L.M.n . . . . . . . . . . . . . . . . . . . . . . . . . . . . . . . . . . . . . . . . . n N./.w O.P.0 .     ",
". . . Q.R.S.] ] T.U.6.. . . . . . . . . . . . . . . . . . . . . . . . . . . . . . . . . . . . . . . . . . V.W.= ] { A.:.X..     ",
". + 8.Y.- ] ^.M Z.A . . . . . . . . . . . . . . . . . . . . . . . . . . . . . . . . . . . . . . . . . `. +.+{ ] ++@+#+. . .     ",
". $+c ] 2 4 %+_.. . . . . . . . . . . . . . . . . . . . . . . . . . . . . . . . . . . . . . . . . < &+*+w / 2 4.o.=+. . . .     ",
". -+S ] p.;+. . . . . . . . . . . . . . . . . . . . . . . . . . . . . . . . . . . . . . . . . . >+,+'+] ] G.)+!+. . . . . . .   ",
". ~+{+/ ]+. . . 6.x.^+A . . . . . . . . . . . . . . . . . . . . . . . . . . . . . . . . . . O /+l.- / ^.(+_+A . . . . . . . . . ",
". ~+{+/ :+. . . <+[+}+|+V.% . . . . . . . . . . . . . . . . . . . . . . . . . . . . . . % 1+2+^./ - l.3+O ' O P i.4+5+6+7+8+9+. ",
". ~+{+/ :+. . . 0+c a+[.}+:+, ' . . . . . . . . . . . . . . . . . . . . . . . . . . . !+b+T.] ] S.c+>+. . |.d+Y.A.c = e+{ f++ . ",
". ~+{+/ :+. . . _.g+h+- 3.{ !.c+i+[ . . . . . . . . . . . . . . . . . . . . . . . =+o.j+2 / w d+&+< . . . O k+^ { - - - = 1.. . ",
". ~+{+/ :+. . . . A ;+l+m+2 / { n+o+p+' . . . . . . . . . . . . . . . . . . . . #+@+++] { q+r+`.. . . . . . m h.- 2 2 ] s+9..   ",
". ~+{+/ ]+. . . . . . . i.m.t+5 / { T.u+|.< . . . . . . . . . . . . . . . . V v+A.{ ] = W.$ . . . . . . 9.8.i w+- 2 x+Y o.. .   ",
". ~+{+] y+H . . . . . . . . i.z+Y.5 6 ^ k.T 1+A+. . . . . . . . . . . . ..B+C+j / 5 J @ n . . . . . % _+2.Y / - D+j ] @.%..     ",
". -+E+{ e+F+G+H+. . . . . . . . I+J+K+j 6 ^ L+W.M+... . . . . . . . . N+u+x ] ] ( g+H+. . . . . . 6.O+n+] ] S P+t Q+5 (.. .     ",
". R+S+h.] / w T+! H+. . . . . . . . u U+V+W+/ X+h.k+5+... . . . . _.G+Y+[./ Y }.Z+A . . . . . + M.`+5 ] w+ @+.0 . .@M 6..       ",
". . +@7.@@c ^ / j #@! $@. . . . . . . . H+%@3 1 / ] S.&@.@+ . ' t *@e+] - =@-@9.. . . . . . ;@E.++] { R >@P . . . < u A .       ",
"  . . . +@,@j.d ^ 6 j '@ +!+. . . . . . . . R+)@J e+3.] !@C ~@{@L+] ] c :+i.. . . . . . V J+]@{ ] Z ^@i+A . .   . . . .         ",
"      . . . A+/@(@g.^ 6 j K+_@f . . . . . . . . :@3+<@K 6 ] Y 5 / 1 | } [@. . . . . +@1.C+W+/ 2 T+}@o . . .                     ",
"          . . . < |.u+T.{ 3.5 |@h 1@. . . . . . . . 2@3@X ^./ { 4@! 9+. . . . . . ;+5@!@] ] g.6@7@. . .                         ",
"              . . . ' p+o+8@{ 3.5 l.9@0@. . . . . . . . 9+a@p.S+b@. . . . . . _.:.t+- ] ^.c@d@% . .                             ",
"                  . . . ' i+_ e@{ 6 2 4 f@i.A . . . . . . . 9.0 . . . . . ' t *@K / - l.(._.. . .                               ",
"                      . . . ' y.> R { 6 2 g@h@i@A . . . . . . . . . . . I+j@k.] ] '+R.>+. . .                                   ",
"                          . . . % V.k@; [.6 2 l@m@i@A . . . . . . . o a@'@2 / w n@m < . .                                       ",
"                              . . . A o@k@A.- 3.2 ~ m@,.A . . . A B C D ] { p@ +q@. . .                                         ",
"                                  . . . A ^+j@r@- 6 - h+6@<+A R+>@R ^ / s@j.o@. . .                                             ",
"                                      . . . A U t@h+- 6 - .+5@ @w+/ 5 u@~@+ . .                                                 ",
"                                          . . . A ,.O+~ 2 / ^ ] ^ R f@H . . .                                                   ",
"                                                . . A i@v@E 2 w@f+p+A . .                                                       ",
"                                                    . . A i@9@a@x@. . .                                                         ",
"                                                        . . . . . .                                                             ",
"                                                            . .                                                                 ",
"                                                                                                                                ",
"                                                                                                                                ",
"                                                                                                                                ",
"                                                                                                                                ",
"                                                                                                                                ",
"                                                                                                                                ",
"                                                                                                                                ",
"                                                                                                                                "};
